<svg width="40" height="40" viewBox="0 0 40 40" fill="none" xmlns="http://www.w3.org/2000/svg">
<path d="M26.5441 17.2902L24.816 16.2835L19.3092 25.7371L17.1568 22.4451L15.4828 23.5396L19.4074 29.5421L26.5441 17.2902Z" fill="#707A95"/>
<path fill-rule="evenodd" clip-rule="evenodd" d="M11 4V6H7C5.34315 6 4 7.34315 4 9V32C4 33.6569 5.34315 35 7 35H33C34.6569 35 36 33.6569 36 32V9C36 7.34315 34.6569 6 33 6H30V4H26V6H15V4H11ZM15 8H26V10H30V8H33C33.5523 8 34 8.44772 34 9V13H6V9C6 8.44772 6.44772 8 7 8H11V10H15V8ZM6 32V15H34V32C34 32.5523 33.5523 33 33 33H7C6.44772 33 6 32.5523 6 32Z" fill="#707A95"/>
</svg>
