<svg width="40" height="40" viewBox="0 0 40 40" fill="none" xmlns="http://www.w3.org/2000/svg">
<path fill-rule="evenodd" clip-rule="evenodd" d="M21 4H22H35H36V5V35V36H35H22H21V35V5V4ZM23 34H34V16H23V34ZM23 14V6H34V14H23ZM4 20H5H18H19V21V35V36H18H15H14H9H8H5H4V35V21V20ZM10 34H13V30H10V34ZM15 34V29V28H14H9H8V29V34H6V22H17V34H15ZM13 9H10V6H13V9ZM15 5V9.72302L17.8575 14.4855L18.7662 16H17H6H4.23381L5.14251 14.4855L8 9.72302V5V4H9H14H15V5ZM9.56619 11H13.4338L15.2338 14H7.76619L9.56619 11ZM27 23H25V19H27V23ZM15 24H8V26H15V24ZM27 8V12H25V8H27Z" fill="#737A8E"/>
</svg>